<svg width="15" height="20" viewBox="0 0 15 20" fill="none" xmlns="http://www.w3.org/2000/svg">
<path d="M5.63593 9.65938H9.6328L14.6297 0H10.6328L5.63593 9.65938Z" fill="#006CA2"/>
<path d="M8.13436 4.82968L6.13593 8.69374L6.63593 9.65937H9.6328L10.1328 8.69374L8.13436 4.82968Z" fill="#2F2F2F"/>
<path d="M9.95311 11.9922H5.95624V9.65939H9.95311V11.9922ZM9.95311 8.66095H5.95624C5.69102 8.66095 5.43667 8.76631 5.24913 8.95384C5.06159 9.14138 4.95624 9.39573 4.95624 9.66095V11.9922C4.95624 12.2574 5.06159 12.5118 5.24913 12.6993C5.43667 12.8868 5.69102 12.9922 5.95624 12.9922H9.95311C10.5047 12.9922 10.9516 12.5453 10.9516 11.9922V9.65939C10.9516 9.10782 10.5047 8.66095 9.95311 8.66095Z" fill="#FCC21B"/>
<path d="M12.95 14.9891C12.95 17.7484 10.7125 19.9859 7.95311 19.9859C5.19374 19.9859 2.95624 17.75 2.95624 14.9891C2.95624 12.2281 5.19374 9.99219 7.95311 9.99219C10.7141 9.99219 12.95 12.2297 12.95 14.9891Z" fill="#FCC21B"/>
<path d="M4.60472 13.7734C4.53909 13.7734 4.47347 13.7609 4.41097 13.7328C4.17034 13.6297 4.05472 13.35 4.14847 13.1078C4.15003 13.1047 4.15159 13.1 4.15159 13.0969C4.15315 13.0891 4.15472 13.0906 4.15784 13.0844C4.60003 12.0312 5.52659 11.2531 6.63909 10.9953C6.69378 10.9828 6.75159 11.0094 6.77659 11.0609C6.80159 11.1125 6.78753 11.175 6.74222 11.2109C6.01253 11.7906 5.42972 12.5719 5.05784 13.4719C5.05784 13.4734 5.05628 13.475 5.05628 13.475C5.05628 13.475 5.05628 13.4766 5.05472 13.4766C5.00316 13.5969 4.90784 13.6906 4.78597 13.7375C4.72816 13.7625 4.66566 13.7734 4.60472 13.7734Z" fill="white"/>
<path d="M9.9672 9.65938H5.96876L0.97345 0H4.97032L9.9672 9.65938Z" fill="#006CA2"/>
<path d="M6.98439 13.9703L7.44845 13.8375V16.3859H7.09064C7.05157 16.3859 7.02189 16.4172 7.02189 16.4547V17.3266C7.02189 17.3641 7.05157 17.3953 7.09064 17.3953H8.9422C8.9797 17.3953 9.01095 17.3641 9.01095 17.3266V16.4547C9.01095 16.4172 8.9797 16.3859 8.9422 16.3859H8.58439V12.6531C8.58439 12.6328 8.57501 12.6125 8.55782 12.6C8.54983 12.5935 8.5405 12.5889 8.5305 12.5865C8.5205 12.584 8.51009 12.5839 8.50001 12.5859L6.95001 12.9188C6.91876 12.9266 6.89532 12.9531 6.89532 12.9859V13.9047C6.89532 13.925 6.9047 13.9469 6.92189 13.9594C6.9422 13.9719 6.96407 13.975 6.98439 13.9703Z" fill="#F79329"/>
</svg>
