<svg width="14" height="20" viewBox="0 0 14 20" fill="none" xmlns="http://www.w3.org/2000/svg">
<path d="M4.83437 9.66406H8.8328L13.8312 0H9.8328L4.83437 9.66406Z" fill="#006CA2"/>
<path d="M7.33282 4.83124L5.33438 8.69843L5.83438 9.66405H8.83282L9.33282 8.69843L7.33282 4.83124Z" fill="#2F2F2F"/>
<path d="M9.15156 11.9969H5.15312V9.66406H9.15156V11.9969ZM9.15156 8.66406H5.15312C4.88791 8.66406 4.63355 8.76942 4.44602 8.95696C4.25848 9.14449 4.15312 9.39885 4.15312 9.66406V11.9969C4.15312 12.55 4.6 12.9969 5.15312 12.9969H9.15156C9.70468 12.9969 10.1516 12.55 10.1516 11.9969V9.66406C10.1516 9.11094 9.70468 8.66406 9.15156 8.66406Z" fill="#F79329"/>
<path d="M12.1516 14.9953C12.1516 17.7563 9.91405 19.9938 7.15312 19.9938C4.39218 19.9938 2.15468 17.7563 2.15468 14.9953C2.15468 12.2344 4.39218 9.99689 7.15312 9.99689C9.91405 9.99689 12.1516 12.2359 12.1516 14.9953Z" fill="#F79329"/>
<path d="M3.80156 13.7797C3.73593 13.7797 3.67031 13.7672 3.60781 13.7391C3.36718 13.6359 3.25156 13.3563 3.34531 13.1125C3.34687 13.1078 3.34843 13.1047 3.34999 13.1016C3.35156 13.0938 3.35156 13.0953 3.35624 13.0891C3.57501 12.5694 3.91401 12.109 4.34536 11.7458C4.77672 11.3826 5.28811 11.127 5.83749 11C5.89218 10.9875 5.94999 11.0141 5.97499 11.0656C5.99999 11.1172 5.98593 11.1797 5.94062 11.2156C5.21093 11.7953 4.62812 12.5781 4.25468 13.4766C4.25468 13.4781 4.25312 13.4797 4.25312 13.4797C4.25312 13.4813 4.25312 13.4813 4.25156 13.4828C4.19999 13.6031 4.10468 13.6969 3.98281 13.7438C3.92499 13.7688 3.86249 13.7797 3.80156 13.7797Z" fill="white"/>
<path d="M9.16562 9.66406H5.16718L0.168747 0H4.16718L9.16562 9.66406Z" fill="#006CA2"/>
<path d="M7.10937 17.4766H7.13437C7.41719 17.4719 7.95312 17.4094 8.3625 17.0422C8.70312 16.7359 8.86094 16.3172 8.79687 15.8922C8.73594 15.4969 8.4875 15.1609 8.10781 14.9531C8.47187 14.6797 8.69062 14.3375 8.72812 13.9813C8.76562 13.6359 8.62969 13.2922 8.3375 12.9859C8.04375 12.6781 7.64688 12.5156 7.19219 12.5156C6.49063 12.5156 5.84531 12.8859 5.65 13.1547C5.63281 13.1766 5.63281 13.2078 5.64844 13.2328L6.08437 13.8625C6.09531 13.8781 6.11094 13.8891 6.12969 13.8906C6.14687 13.8938 6.16719 13.8891 6.18125 13.8766C6.18594 13.8734 6.65938 13.4844 7.06406 13.4844C7.24844 13.4844 7.38438 13.5656 7.48125 13.7313C7.56094 13.8703 7.57656 13.9969 7.52812 14.1188C7.39531 14.4469 6.83281 14.6141 6.82812 14.6156C6.8 14.6234 6.77969 14.65 6.77969 14.6797V15.2344C6.77969 15.2656 6.8 15.2922 6.83125 15.2984C6.8375 15.3 7.37188 15.4328 7.49375 15.7391C7.54219 15.8594 7.51719 15.9953 7.42187 16.1438C7.32031 16.3 7.16719 16.3797 6.96562 16.3797C6.575 16.3797 6.09688 16.0828 5.8875 15.8969C5.88051 15.8907 5.87234 15.886 5.86348 15.883C5.85461 15.8801 5.84525 15.8789 5.83594 15.8797C5.81562 15.8813 5.8 15.8922 5.78906 15.9078L5.35312 16.5375C5.33594 16.5625 5.3375 16.5953 5.35781 16.6188C5.38438 16.6547 6.09687 17.4766 7.10937 17.4766Z" fill="#AE3D09"/>
</svg>
