<svg width="14" height="20" viewBox="0 0 14 20" fill="none" xmlns="http://www.w3.org/2000/svg">
<path d="M4.71094 9.65625H8.70625L13.7016 0H9.70625L4.71094 9.65625Z" fill="#006CA2"/>
<path d="M7.20781 4.82812L5.21094 8.69062L5.71094 9.65625H8.70625L9.20625 8.69062L7.20781 4.82812Z" fill="#2F2F2F"/>
<path d="M9.02656 11.9875H5.02969V9.65624H9.025V11.9875H9.02656ZM9.02656 8.65781H5.02969C4.47813 8.65781 4.03125 9.10468 4.03125 9.65624V11.9875C4.03125 12.5391 4.47813 12.9859 5.02969 12.9859H9.025C9.57656 12.9859 10.0234 12.5391 10.0234 11.9875V9.65624C10.0238 9.52517 9.99822 9.39531 9.94826 9.27413C9.89829 9.15295 9.8249 9.04282 9.73229 8.95006C9.63968 8.8573 9.52966 8.78374 9.40856 8.73359C9.28746 8.68344 9.15764 8.65768 9.02656 8.65781Z" fill="#CECED2"/>
<path d="M12.0234 14.9844C12.0234 17.7438 9.78746 19.9797 7.02809 19.9797C4.27028 19.9797 2.03278 17.7438 2.03278 14.9844C2.03278 12.225 4.26871 9.98907 7.02809 9.98907C9.78746 9.98907 12.0234 12.2266 12.0234 14.9844Z" fill="#CECED2"/>
<path d="M3.67967 13.7687C3.61404 13.7687 3.54842 13.7562 3.48592 13.7281C3.24529 13.625 3.12967 13.3453 3.22342 13.1015C3.22498 13.0984 3.22654 13.0937 3.22654 13.0906C3.22811 13.0828 3.22811 13.0844 3.23279 13.0781C3.4513 12.5587 3.79005 12.0985 4.22115 11.7356C4.65226 11.3727 5.16339 11.1174 5.71248 10.9906C5.76717 10.9781 5.82498 11.0047 5.84998 11.0562C5.87498 11.1078 5.86092 11.1687 5.8156 11.2047C5.08592 11.7844 4.50311 12.5656 4.13123 13.464C4.13123 13.4656 4.12967 13.4672 4.12967 13.4672C4.12967 13.4687 4.12967 13.4687 4.12811 13.4703C4.07654 13.5906 3.98123 13.6828 3.85936 13.7312C3.80311 13.7578 3.74061 13.7687 3.67967 13.7687Z" fill="white"/>
<path d="M9.04061 9.65625H5.04374L0.0499878 0H4.0453L9.04061 9.65625Z" fill="#006CA2"/>
<path d="M8.50936 16.2312H6.8328C7.09686 16.0703 7.5578 15.75 8.0828 15.225C8.57498 14.7344 8.73905 13.8391 8.15155 13.25C7.81092 12.9109 7.42342 12.7375 6.99998 12.7375C6.06405 12.7375 5.2828 13.5656 5.24998 13.6C5.22967 13.6219 5.22498 13.6562 5.24217 13.6828L5.66405 14.3719C5.67498 14.3891 5.69373 14.4016 5.71405 14.4031C5.73436 14.4062 5.75467 14.4 5.7703 14.3844C5.77498 14.3797 6.28436 13.9078 6.73123 13.9078C6.91092 13.9078 7.05155 13.9828 7.16092 14.1391C7.24998 14.2656 7.27655 14.4062 7.24217 14.5656C7.07186 15.3281 5.56717 16.1906 5.55155 16.2C5.54122 16.2061 5.53264 16.2148 5.52663 16.2252C5.52061 16.2356 5.51735 16.2474 5.51717 16.2594V17.1609C5.51717 17.2 5.54842 17.2297 5.58592 17.2297H8.51092C8.54842 17.2297 8.57967 17.1984 8.57967 17.1609V16.2984C8.57883 16.2803 8.57106 16.2633 8.55796 16.2508C8.54487 16.2382 8.52747 16.2313 8.50936 16.2312Z" fill="#77A2AD"/>
</svg>
