<svg width="24" height="24" viewBox="0 0 24 24" fill="none" xmlns="http://www.w3.org/2000/svg">
<path d="M19.5001 12C18.9661 12.0028 18.4427 12.1494 17.9851 12.4245L15.8408 10.2802L17.5606 8.5605C17.8418 8.27921 17.9998 7.89775 17.9998 7.5C17.9998 7.10225 17.8418 6.72079 17.5606 6.4395L13.0606 1.9395C12.7793 1.65829 12.3978 1.50032 12.0001 1.50032C11.6023 1.50032 11.2209 1.65829 10.9396 1.9395L6.43957 6.4395C6.15837 6.72079 6.00039 7.10225 6.00039 7.5C6.00039 7.89775 6.15837 8.27921 6.43957 8.5605L8.15932 10.2802L6.01507 12.4245C5.37973 12.0475 4.62863 11.9155 3.90281 12.0531C3.17699 12.1908 2.52639 12.5887 2.07318 13.1721C1.61998 13.7555 1.39534 14.4843 1.44147 15.2216C1.48759 15.9589 1.8013 16.654 2.32368 17.1764C2.84606 17.6988 3.54117 18.0125 4.27849 18.0586C5.0158 18.1047 5.74459 17.8801 6.328 17.4269C6.91141 16.9737 7.3093 16.3231 7.44695 15.5973C7.5846 14.8714 7.45254 14.1203 7.07557 13.485L9.21982 11.3407L10.9396 13.0605C11.0324 13.1513 11.1368 13.2294 11.2501 13.293V16.5H9.00007V22.5H15.0001V16.5H12.7501V13.2922C12.8633 13.2289 12.9677 13.151 13.0606 13.0605L14.7803 11.3407L16.9246 13.485C16.5924 14.0548 16.4578 14.7183 16.5418 15.3725C16.6257 16.0266 16.9234 16.6347 17.3887 17.1022C17.8539 17.5696 18.4606 17.8703 19.1143 17.9573C19.7681 18.0444 20.4323 17.913 21.0036 17.5835C21.5749 17.2541 22.0214 16.7451 22.2736 16.1357C22.5258 15.5263 22.5695 14.8507 22.3981 14.2138C22.2266 13.577 21.8495 13.0147 21.3254 12.6143C20.8013 12.214 20.1596 11.998 19.5001 12ZM6.00007 15C6.00007 15.2967 5.9121 15.5867 5.74728 15.8334C5.58246 16.08 5.34819 16.2723 5.0741 16.3858C4.80001 16.4994 4.49841 16.5291 4.20744 16.4712C3.91647 16.4133 3.64919 16.2704 3.43941 16.0607C3.22964 15.8509 3.08677 15.5836 3.0289 15.2926C2.97102 15.0017 3.00072 14.7001 3.11425 14.426C3.22779 14.1519 3.42005 13.9176 3.66672 13.7528C3.91339 13.588 4.2034 13.5 4.50007 13.5C4.89778 13.5004 5.27908 13.6586 5.5603 13.9398C5.84151 14.221 5.99968 14.6023 6.00007 15ZM13.5001 18V21H10.5001V18H13.5001ZM12.0001 12L7.50007 7.5L12.0001 3L16.5001 7.5L12.0001 12ZM19.5001 16.5C19.2034 16.5 18.9134 16.412 18.6667 16.2472C18.42 16.0824 18.2278 15.8481 18.1143 15.574C18.0007 15.2999 17.971 14.9983 18.0289 14.7074C18.0868 14.4164 18.2296 14.1491 18.4394 13.9393C18.6492 13.7296 18.9165 13.5867 19.2074 13.5288C19.4984 13.4709 19.8 13.5006 20.0741 13.6142C20.3482 13.7277 20.5825 13.92 20.7473 14.1666C20.9121 14.4133 21.0001 14.7033 21.0001 15C20.9997 15.3977 20.8415 15.779 20.5603 16.0602C20.2791 16.3414 19.8978 16.4996 19.5001 16.5Z" fill="#C2CDDB"/>
</svg>
